<mxfile host="app.diagrams.net" agent="Mozilla/5.0 (Windows NT 10.0; Win64; x64) AppleWebKit/537.36 (KHTML, like Gecko) Chrome/128.0.0.0 Safari/537.36" version="24.7.14">
  <diagram name="Page-1" id="82e54ff1-d628-8f03-85c4-9753963a91cd">
    <mxGraphModel dx="1257" dy="620" grid="1" gridSize="10" guides="1" tooltips="1" connect="1" arrows="1" fold="1" page="1" pageScale="1" pageWidth="1100" pageHeight="850" background="none" math="0" shadow="0">
      <root>
        <mxCell id="0" />
        <mxCell id="1" parent="0" />
        <mxCell id="4ec97bd9e5d20128-16" value="&lt;h1&gt;Client&lt;/h1&gt;&lt;p&gt;Request Response&lt;/p&gt;" style="text;html=1;spacing=5;spacingTop=-20;whiteSpace=wrap;overflow=hidden;strokeColor=none;strokeWidth=3;fillColor=#E6E6E6;fontSize=13;fontColor=#000000;align=center;rounded=1;" parent="1" vertex="1">
          <mxGeometry x="170" y="230" width="215" height="120" as="geometry" />
        </mxCell>
        <mxCell id="4ec97bd9e5d20128-17" value="&lt;h1&gt;Controller&lt;/h1&gt;&lt;p&gt;Mapping REST API&lt;/p&gt;" style="text;html=1;spacing=5;spacingTop=-20;whiteSpace=wrap;overflow=hidden;strokeColor=none;strokeWidth=3;fillColor=#E6E6E6;fontSize=13;fontColor=#000000;align=center;rounded=1;" parent="1" vertex="1">
          <mxGeometry x="486" y="230" width="215" height="120" as="geometry" />
        </mxCell>
        <mxCell id="4ec97bd9e5d20128-18" value="&lt;h1&gt;Service Layer&lt;/h1&gt;&lt;p&gt;Business logic inside.&lt;/p&gt;" style="text;html=1;spacing=5;spacingTop=-20;whiteSpace=wrap;overflow=hidden;strokeColor=none;strokeWidth=3;fillColor=#E6E6E6;fontSize=13;fontColor=#000000;align=center;rounded=1;" parent="1" vertex="1">
          <mxGeometry x="754" y="230" width="215" height="120" as="geometry" />
        </mxCell>
        <mxCell id="lLHDqfpQ_8zfisPfltb2-1" value="" style="endArrow=block;startArrow=block;endFill=1;startFill=1;html=1;rounded=0;strokeWidth=2;" edge="1" parent="1">
          <mxGeometry width="160" relative="1" as="geometry">
            <mxPoint x="400" y="294" as="sourcePoint" />
            <mxPoint x="470" y="294" as="targetPoint" />
          </mxGeometry>
        </mxCell>
        <mxCell id="lLHDqfpQ_8zfisPfltb2-3" value="" style="image;html=1;image=img/lib/clip_art/computers/Database_128x128.png" vertex="1" parent="1">
          <mxGeometry x="612.5" y="600" width="80" height="80" as="geometry" />
        </mxCell>
        <mxCell id="lLHDqfpQ_8zfisPfltb2-6" value="&lt;h1&gt;Model&lt;/h1&gt;&lt;p&gt;Entity.&lt;/p&gt;" style="text;html=1;spacing=5;spacingTop=-20;whiteSpace=wrap;overflow=hidden;strokeColor=none;strokeWidth=3;fillColor=#E6E6E6;fontSize=13;fontColor=#000000;align=center;rounded=1;" vertex="1" parent="1">
          <mxGeometry x="1044" y="230" width="215" height="120" as="geometry" />
        </mxCell>
        <mxCell id="lLHDqfpQ_8zfisPfltb2-7" value="HTTP" style="text;html=1;align=center;verticalAlign=middle;resizable=0;points=[];autosize=1;strokeColor=none;fillColor=none;" vertex="1" parent="1">
          <mxGeometry x="410" y="250" width="50" height="30" as="geometry" />
        </mxCell>
        <mxCell id="lLHDqfpQ_8zfisPfltb2-8" value="Request&lt;div&gt;Response&lt;/div&gt;" style="text;html=1;align=center;verticalAlign=middle;resizable=0;points=[];autosize=1;strokeColor=none;fillColor=none;" vertex="1" parent="1">
          <mxGeometry x="395" y="310" width="80" height="40" as="geometry" />
        </mxCell>
      </root>
    </mxGraphModel>
  </diagram>
</mxfile>
